<?xml version="1.0" standalone="no"?>
<!DOCTYPE svg PUBLIC "-//W3C//DTD SVG 1.1//EN" "http://www.w3.org/Graphics/SVG/1.1/DTD/svg11.dtd" >
<svg xmlns="http://www.w3.org/2000/svg">
<metadata></metadata>
<defs>
<font id="nexa_lightregular" horiz-adv-x="631" >
<font-face units-per-em="1000" ascent="700" descent="-300" />
<missing-glyph horiz-adv-x="265" />
<glyph horiz-adv-x="1000" />
<glyph horiz-adv-x="1000" />
<glyph unicode="&#xd;" horiz-adv-x="1000" />
<glyph unicode=" "  horiz-adv-x="265" />
<glyph unicode="&#x09;" horiz-adv-x="265" />
<glyph unicode="&#xa0;" horiz-adv-x="265" />
<glyph unicode="!" horiz-adv-x="239" d="M82 35q0 18 12.5 28.5t27 10.5t27 -10.5t12.5 -28.5t-12.5 -28.5t-27 -10.5t-27 10.5t-12.5 28.5zM94 141v559h51v-559h-51z" />
<glyph unicode="&#x22;" horiz-adv-x="338" d="M77 448v256h45v-256h-45zM217 448v256h44v-256h-44z" />
<glyph unicode="#" horiz-adv-x="629" d="M37 171v40h89l73 283h-85v38h94l41 168h46l-41 -168h201l42 168h46l-42 -168h91v-38h-100l-72 -283h95v-40h-104l-42 -171h-46l42 171h-201l-42 -171h-46l42 171h-81zM172 211h202l72 283h-201z" />
<glyph unicode="$" horiz-adv-x="645" d="M40 134l48 24q29 -56 96.5 -82.5t141.5 -26.5q36 0 72 7t71.5 21.5t57.5 42.5t22 66q0 25 -8 45.5t-26.5 35.5t-36 25t-49.5 19t-52 13.5t-58 11.5q-37 7 -55 11t-51 12.5t-49.5 16.5t-39.5 22t-34 29.5t-20 38.5t-10 50q-1 47 20.5 83.5t58.5 58t78.5 33.5t86.5 14v100 h45v-100q75 -4 138 -34t95 -87l-47 -26q-26 49 -85 72.5t-124 24.5q-34 0 -69 -7.5t-68.5 -22t-54.5 -43t-20 -64.5q1 -26 12.5 -45.5t28.5 -32.5t48 -23.5t57 -16.5t68 -14q131 -25 179 -49q96 -47 96 -152q0 -62 -41.5 -105.5t-96 -61.5t-117.5 -21v-97h-44v97 q-85 3 -157.5 37t-106.5 100z" />
<glyph unicode="%" horiz-adv-x="722" d="M109 0l446 702l55 1l-445 -703h-56zM190 410q-42 0 -74.5 16.5t-49.5 42.5t-25 57t0 62.5t25 57.5t49.5 42.5t74.5 16.5q49 0 84.5 -22t52 -54.5t16.5 -71t-16.5 -71t-52 -54.5t-84.5 -22zM190 662q-41 0 -68.5 -21.5t-34 -52t0 -61t34.5 -52t69 -21.5q40 0 67 21.5 t33.5 52t0 61t-34 52t-67.5 21.5zM531 -6q-48 0 -84 22t-52 54.5t-16 71t16 71t52 54.5t84 22q42 0 75 -16.5t50 -42.5t25 -57t0 -62.5t-25 -57.5t-50 -42.5t-75 -16.5zM531 248q-40 0 -68 -22t-34 -53t0.5 -62t34.5 -53t68 -22t68 22t34 53t-0.5 62t-34.5 53t-68 22z" />
<glyph unicode="&#x26;" horiz-adv-x="688" d="M63 186q0 61 41.5 106.5t99.5 64.5q-56 17 -92.5 60.5t-36.5 100.5q0 83 66 134.5t183 51.5q225 0 225 -173h-47q0 32 -10 55.5t-26 37.5t-40 22t-48 11t-55 3q-97 0 -147.5 -39.5t-49.5 -101.5q0 -38 19 -66.5t49.5 -44t63.5 -22.5t67 -7h297v-43h-64v-153 q0 -65 19.5 -103.5t67.5 -37.5v-42q-42 -6 -74 19t-43 70q-60 -98 -206 -98q-126 0 -192.5 52t-66.5 143zM114 186q0 -70 52 -109t155 -39q33 0 64 6.5t61.5 21.5t49 45t18.5 72v153h-192q-97 0 -152.5 -45.5t-55.5 -104.5z" />
<glyph unicode="'" horiz-adv-x="198" d="M77 448v256h44v-256h-44z" />
<glyph unicode="(" horiz-adv-x="321" d="M270 -149q-106 69 -163.5 191.5t-57.5 250.5t57.5 250.5t163.5 191.5l26 -38q-92 -64 -142.5 -173.5t-52 -224t48.5 -227t146 -182.5z" />
<glyph unicode=")" horiz-adv-x="322" d="M26 -109q96 70 146 182.5t48.5 227t-52 224t-142.5 173.5l26 38q106 -69 163.5 -191.5t57.5 -250.5t-57.5 -250.5t-163.5 -191.5z" />
<glyph unicode="*" horiz-adv-x="344" d="M62 610l11 36l79 -26l-2 81h41l-2 -81l85 25l11 -36l-86 -22l55 -70l-33 -24l-51 73l-53 -73l-33 23l57 71z" />
<glyph unicode="+" horiz-adv-x="499" d="M51 318v48h175v172h47v-172h175v-48h-175v-177h-47v177h-175z" />
<glyph unicode="," horiz-adv-x="225" d="M66 -89l31 83q-24 9 -24 36q0 18 12.5 28.5t27 10.5t27 -10.5t12.5 -28.5q0 -8 -3 -17l-40 -102h-43z" />
<glyph unicode="-" horiz-adv-x="496" d="M73 261v50h350v-50h-350z" />
<glyph unicode="." horiz-adv-x="225" d="M73 30q0 18 12.5 28.5t27 10.5t27 -10.5t12.5 -28.5t-12.5 -28.5t-27 -10.5t-27 10.5t-12.5 28.5z" />
<glyph unicode="/" horiz-adv-x="479" d="M27 -82l373 841h54l-374 -841h-53z" />
<glyph unicode="0" horiz-adv-x="671" d="M68 267v167q0 88 39.5 152t99.5 93t129 29t129 -29t99.5 -93.5t39.5 -151.5v-167q0 -66 -23 -119.5t-60.5 -86.5t-86 -51t-98.5 -18t-98.5 17.5t-86 50.5t-60.5 87t-23 120zM121 267q0 -54 18.5 -98t48.5 -71t69 -41.5t79 -14.5t79 14.5t69 41.5t48.5 71t18.5 98v167 q0 54 -18.5 97.5t-48.5 70.5t-69 41.5t-79 14.5t-79 -14.5t-69 -41t-48.5 -70.5t-18.5 -98v-167z" />
<glyph unicode="1" horiz-adv-x="401" d="M50 0v47h136v592l-129 -32v47l183 46v-653h137v-47h-327z" />
<glyph unicode="2" horiz-adv-x="669" d="M67 0v158q0 56 23.5 95.5t64.5 60.5t86 30t98 9q37 0 73 7.5t70.5 24t55.5 47.5t21 73q0 44 -20.5 76t-54 49t-70 24.5t-75.5 7.5q-38 0 -73.5 -7t-68.5 -23t-53 -46.5t-20 -71.5h-53q0 53 23.5 92.5t63.5 61t85 31.5t96 10q70 0 128 -18.5t100 -66.5t42 -119 q0 -68 -42.5 -115t-101 -66.5t-124.5 -19.5q-221 -2 -221 -145v-107h482v-52h-535z" />
<glyph unicode="3" horiz-adv-x="663" d="M59 178h52q0 -36 15.5 -62.5t37 -40.5t54 -22t58.5 -10t58 -2q105 0 161 41.5t56 104.5q0 60 -58 105t-160 45h-116v45h113q98 0 153.5 43.5t56.5 98.5q1 58 -54 99t-154 41q-211 0 -211 -135h-51q0 52 24 89t64 56t82.5 27t90.5 8q121 0 189 -52t69 -133 q0 -59 -43 -105.5t-105 -57.5q66 -12 113.5 -61t47.5 -111q0 -86 -71 -142t-198 -56q-50 0 -94.5 8.5t-87 27.5t-67.5 58t-25 93z" />
<glyph unicode="4" horiz-adv-x="655" d="M27 223l405 477h89v-491h88v-51h-88v-158h-54v158h-429zM85 209h382v451z" />
<glyph unicode="5" horiz-adv-x="657" d="M64 193h54q0 -144 217 -144q108 0 163 45t55 118t-45 120.5t-152 47.5h-275v320h487v-48h-437v-224h225q68 0 118.5 -18t78.5 -49t41 -68t13 -80q0 -93 -70 -155.5t-202 -62.5q-52 0 -96.5 9.5t-85.5 30.5t-65 61.5t-24 96.5z" />
<glyph unicode="6" horiz-adv-x="686" d="M81 210v306q0 93 78.5 143.5t187.5 50.5q110 0 185.5 -46t81.5 -131h-54q-4 61 -63.5 95t-149.5 34q-86 0 -149.5 -38.5t-63.5 -107.5v-191q69 99 224 99q52 0 99 -12.5t87 -37t63.5 -67.5t23.5 -99q0 -57 -24 -100.5t-64 -67.5t-87 -36t-99 -12q-71 0 -131 20.5 t-102.5 71.5t-42.5 126zM135 209q0 -45 20 -78.5t53.5 -52t71 -27t77.5 -8.5q41 0 77.5 8t70 26t53.5 51.5t20 79.5q0 80 -67.5 123.5t-152.5 43.5t-153.5 -43t-69.5 -123z" />
<glyph unicode="7" horiz-adv-x="561" d="M32 650v50h510l7 -44l-380 -656h-61l378 650h-454z" />
<glyph unicode="8" horiz-adv-x="701" d="M62 184q0 68 46 115.5t112 61.5q-146 45 -146 162q0 52 25.5 91t68 60t88.5 31t95 10t94.5 -9.5t88 -30t68.5 -60t26 -92.5q0 -62 -42 -102.5t-110 -61.5q66 -14 114.5 -61.5t48.5 -113.5q0 -54 -26.5 -94.5t-70 -62t-91.5 -32t-100 -10.5t-100 10.5t-92 32t-70.5 62 t-26.5 94.5zM116 184q0 -54 43.5 -89.5t93 -47t98.5 -11.5q35 0 72 7t75 23t63 46.5t25 71.5t-25 73t-63 49t-75.5 25.5t-71.5 8.5t-71.5 -8t-76 -24.5t-63 -49t-24.5 -74.5zM127 523q0 -38 22.5 -66t58.5 -43t72 -21.5t71 -6.5t71 6.5t72 21.5t58.5 43t22.5 66 q0 40 -22.5 70t-58 45.5t-72 23t-71.5 7.5q-36 0 -71.5 -7t-71.5 -22.5t-58.5 -45.5t-22.5 -71z" />
<glyph unicode="9" horiz-adv-x="686" d="M55 494q0 57 24 100.5t64 67.5t87 36t99 12q71 0 131 -20.5t102.5 -71.5t42.5 -126v-306q0 -93 -78.5 -143.5t-187.5 -50.5q-110 0 -185.5 46t-81.5 131h54q4 -61 63.5 -95t149.5 -34q86 0 150 38.5t64 107.5v191q-69 -99 -225 -99q-52 0 -99 12.5t-87 37t-63.5 67.5 t-23.5 99zM108 494q0 -44 20 -78t53 -52.5t70 -27.5t77 -9q85 0 153.5 43t69.5 123q0 45 -20 78.5t-53.5 52t-71 27t-77.5 8.5q-41 0 -77.5 -8t-70 -26t-53.5 -51.5t-20 -79.5z" />
<glyph unicode=":" horiz-adv-x="225" d="M73 30q0 18 12.5 28.5t27 10.5t27 -10.5t12.5 -28.5t-12.5 -28.5t-27 -10.5t-27 10.5t-12.5 28.5zM73 330q0 18 12.5 28.5t27 10.5t27 -10.5t12.5 -28.5t-12.5 -28.5t-27 -10.5t-27 10.5t-12.5 28.5z" />
<glyph unicode=";" horiz-adv-x="235" d="M73 -89l31 83q-24 9 -24 36q0 18 12.5 28.5t27 10.5t27 -10.5t12.5 -28.5q0 -8 -3 -17l-40 -102h-43zM80 330q0 18 12.5 28.5t27 10.5t27 -10.5t12.5 -28.5t-12.5 -28.5t-27 -10.5t-27 10.5t-12.5 28.5z" />
<glyph unicode="&#x3c;" horiz-adv-x="363" d="M57 298v39l211 186l30 -34l-192 -171l196 -172l-34 -34z" />
<glyph unicode="=" horiz-adv-x="553" d="M77 193v49h399v-49h-399zM77 390v50h399v-50h-399z" />
<glyph unicode="&#x3e;" horiz-adv-x="363" d="M61 146l196 172l-192 171l30 34l211 -186v-39l-211 -186z" />
<glyph unicode="?" horiz-adv-x="615" d="M36 508q0 44 16 79.5t42 58t61.5 38t72.5 22t76 6.5q41 0 77.5 -6t72.5 -20.5t62 -37t42 -59t16 -82.5q0 -48 -12.5 -83t-37 -55.5t-45 -30.5t-50.5 -19q-79 -24 -99.5 -54t-20.5 -124h-51q0 103 33 150t125 74q52 15 79.5 44.5t27.5 97.5q0 47 -20 79.5t-54.5 48.5 t-69 22.5t-75.5 6.5q-38 0 -73 -7t-68.5 -23.5t-54 -49t-20.5 -76.5h-52zM249 36q0 25 19.5 35t39 0t19.5 -35t-19.5 -35t-39 0t-19.5 35z" />
<glyph unicode="@" horiz-adv-x="884" d="M55 307q0 165 106.5 276.5t284.5 111.5q177 0 282.5 -103t105.5 -282q0 -105 -40 -185q-21 -42 -58 -54.5t-65.5 10.5t-28.5 71v-1q-35 -48 -88.5 -75t-113.5 -27q-104 0 -177.5 73.5t-73.5 177.5q0 112 72 181.5t179 69.5q62 0 117 -28.5t85 -81.5v85h44v-373 q0 -25 12 -34.5t28.5 -1.5t27.5 28q33 59 33 165q0 163 -91 251t-250 88q-154 0 -247 -96t-93 -246t92.5 -242t247.5 -92q71 0 153 41l26 -38q-79 -49 -179 -49q-179 0 -285 106.5t-106 273.5zM238 300q0 -84 59 -143.5t143 -59.5q65 0 112.5 30t69 75.5t21.5 98t-21.5 98 t-69 75.5t-112.5 30q-86 0 -144 -56t-58 -148z" />
<glyph unicode="A" horiz-adv-x="739" d="M26 0l314 700h59l314 -700h-58l-77 172h-418l-76 -172h-58zM181 222h376l-188 426z" />
<glyph unicode="B" horiz-adv-x="695" d="M99 0v700h287q97 0 163.5 -48.5t66.5 -142.5q0 -54 -30.5 -93.5t-83.5 -56.5q65 -18 101.5 -66t36.5 -110q0 -52 -22 -89t-60.5 -57t-80.5 -28.5t-91 -8.5h-287zM153 52h233q201 0 201 132q-1 76 -57.5 112t-136.5 36h-240v-280zM153 383h240q47 0 83 10t62.5 39.5 t26.5 76.5q0 71 -53 108t-126 37h-233v-271z" />
<glyph unicode="C" horiz-adv-x="714" d="M54 346q-1 96 38 177t123 133t199 52q150 0 255 -105l-37 -32q-89 89 -218 89q-147 0 -228 -89.5t-80 -222.5q2 -130 82.5 -218t225.5 -88q128 0 219 89l36 -34q-105 -105 -255 -105q-169 0 -264 102t-96 252z" />
<glyph unicode="D" horiz-adv-x="746" d="M99 0v700h237q86 0 154.5 -29t111 -78t65 -109t24.5 -126q2 -68 -19.5 -131t-64 -114.5t-112.5 -82t-159 -30.5h-237zM153 52h183q146 0 224.5 91.5t76.5 214.5q-2 120 -80.5 205.5t-220.5 85.5h-183v-597z" />
<glyph unicode="E" horiz-adv-x="649" d="M99 0v700h483v-51h-430v-272h410v-49h-410v-276h442v-52h-495z" />
<glyph unicode="F" horiz-adv-x="623" d="M99 -1v701h471v-54h-417v-279h403v-51h-403v-317h-54z" />
<glyph unicode="G" horiz-adv-x="744" d="M55 348q-1 163 99.5 262.5t261.5 99.5q150 0 256 -105l-31 -34q-45 44 -104.5 67t-120.5 23q-146 0 -228 -91t-81 -221q0 -131 81 -219t228 -88q125 0 213 81v196h-244v47h295v-262q-113 -113 -264 -113q-115 0 -198.5 50t-123 129.5t-39.5 177.5z" />
<glyph unicode="H" horiz-adv-x="752" d="M99 0v700h54v-333h446v333h54v-700h-54v318h-446v-318h-54z" />
<glyph unicode="I" horiz-adv-x="251" d="M99 0v700h53v-700h-53z" />
<glyph unicode="J" horiz-adv-x="673" d="M29 264h50q0 -99 64 -162t162 -63q100 0 162 59.5t62 165.5v389h-268v47h321v-436q0 -127 -77.5 -201t-199.5 -74q-120 0 -198 77t-78 198z" />
<glyph unicode="K" horiz-adv-x="590" d="M97 1v699h54v-319l340 319h65v-5l-352 -330l384 -361v-4h-68l-369 345v-344h-54z" />
<glyph unicode="L" horiz-adv-x="564" d="M99 0v700h54v-649h394v-51h-448z" />
<glyph unicode="M" horiz-adv-x="861" d="M99 0v700h64l268 -408l265 408h66v-700h-53v622l-268 -410h-18l-270 410v-622h-54z" />
<glyph unicode="N" horiz-adv-x="745" d="M99 0v700h23l471 -579v579h53v-700h-21l-472 578v-578h-54z" />
<glyph unicode="O" horiz-adv-x="814" d="M54 351q0 97 38 177t120 131.5t195 51.5q168 0 261 -105.5t92 -256.5q0 -70 -23 -134t-65.5 -115t-111 -81.5t-153.5 -30.5t-153.5 30.5t-111.5 82t-65.5 115.5t-22.5 135zM107 350q1 -128 80 -220t220 -92q96 0 166 46t102.5 115t32.5 151q0 130 -79 220.5t-222 90.5 q-144 0 -222.5 -89.5t-77.5 -221.5z" />
<glyph unicode="P" horiz-adv-x="670" d="M99 0v700h307q55 0 99.5 -19.5t72 -52t42 -73.5t14.5 -84t-14.5 -84t-42 -73.5t-72 -52t-99.5 -19.5h-253v-242h-54zM153 291h253q48 0 85.5 20t57 51.5t28.5 69.5t0 76.5t-28.5 70t-57 51.5t-85.5 20h-253v-359z" />
<glyph unicode="Q" horiz-adv-x="815" d="M54 356q2 149 94.5 251t259.5 102q169 0 261.5 -103.5t91.5 -255.5q0 -139 -82 -239l89 -86l-34 -35l-88 84q-92 -81 -238 -81q-170 0 -263 104.5t-91 258.5zM107 356q-2 -132 77 -222t224 -90q143 0 221.5 88.5t78.5 217.5q0 131 -78.5 219.5t-221.5 88.5 q-132 0 -216.5 -86t-84.5 -216z" />
<glyph unicode="R" horiz-adv-x="700" d="M99 0v700h308q108 0 168.5 -64.5t61.5 -153.5q1 -91 -58.5 -152.5t-168.5 -61.5l247 -268h-71l-242 265h-191v-265h-54zM153 316h248q88 0 132 45t45 122q1 67 -44 117t-127 50h-254v-334z" />
<glyph unicode="S" horiz-adv-x="657" d="M44 141l48 24q30 -60 99.5 -93.5t139.5 -33.5q37 0 72 6t71 21t58 46t22 75q0 25 -8 45.5t-26.5 35.5t-36 25t-49.5 19t-52 13.5t-58 11.5q-42 8 -64.5 13t-58.5 15.5t-55.5 22.5t-40.5 30t-30.5 43t-9.5 56q-1 53 23.5 92.5t66 60.5t85.5 31t91 10q87 0 147.5 -24 t108.5 -95l-44 -26q-35 56 -87.5 75t-124.5 20q-48 0 -92.5 -11t-82 -45t-37.5 -86q0 -26 12 -46t28.5 -32.5t48 -23.5t57 -16.5t68.5 -13.5q131 -25 179 -49q96 -47 96 -152q0 -56 -26.5 -96.5t-69.5 -61t-87.5 -29.5t-93.5 -9q-89 0 -169 38.5t-118 113.5z" />
<glyph unicode="T" horiz-adv-x="590" d="M15 651v48h560v-48h-253v-651h-54v651h-253z" />
<glyph unicode="U" horiz-adv-x="718" d="M91 265v435h53v-435q0 -54 18.5 -98t48.5 -71t69 -42t79 -15t79 15t69 42t48.5 71t18.5 98v435h53v-435q0 -66 -23 -119.5t-60.5 -86.5t-86 -51t-98.5 -18t-98.5 17.5t-86 50.5t-60.5 87t-23 120z" />
<glyph unicode="V" horiz-adv-x="694" d="M30 700h58l259 -640l259 640h58l-288 -702h-58z" />
<glyph unicode="W" horiz-adv-x="1078" d="M36 700h57l216 -640l215 640h30l214 -640l217 640h58l-247 -702h-58q-122 357 -199 605q-78 -249 -200 -605h-58z" />
<glyph unicode="X" horiz-adv-x="604" d="M12 0v1l257 358l-238 339v1h59l212 -299l213 299h58v-1l-238 -339l257 -358v-1h-64l-226 320l-226 -320h-64z" />
<glyph unicode="Y" horiz-adv-x="659" d="M29 699v1h63l237 -368l238 368h63v-1l-274 -419v-280h-54v280z" />
<glyph unicode="Z" horiz-adv-x="594" d="M26 0v23l445 627h-421v50h507v-19l-451 -628h451v-53h-531z" />
<glyph unicode="[" horiz-adv-x="306" d="M91 -167v882h181v-48h-129v-786h129v-48h-181z" />
<glyph unicode="\" horiz-adv-x="478" d="M25 759h53l373 -841h-52z" />
<glyph unicode="]" horiz-adv-x="307" d="M35 -118h129v786h-129v48h181v-882h-181v48z" />
<glyph unicode="^" horiz-adv-x="580" d="M55 384l210 316h50l210 -316l-2 -3h-52l-181 277l-181 -277h-52z" />
<glyph unicode="_" horiz-adv-x="614" d="M73 -26h468v-46h-468v46z" />
<glyph unicode="`" horiz-adv-x="234" d="M29 700v1h65l75 -120v-4h-48z" />
<glyph unicode="a" d="M48 247q0 111 72.5 182t178.5 71q63 0 117.5 -29t84.5 -85v108h49v-494h-49v105q-70 -113 -202 -113q-105 0 -178 72t-73 183zM97 247q0 -91 58 -149t144 -58q57 0 101 23t67 59t34 80t0 88.5t-34 80.5t-67 59t-101 23q-86 0 -144 -57.5t-58 -148.5z" />
<glyph unicode="b" d="M81 0v700h48v-314q29 58 83.5 87t121.5 29q107 0 177.5 -68t70.5 -187t-70 -187t-177 -68q-64 0 -120 31t-86 86v-109h-48zM130 248q0 -92 57 -150t145 -58q87 0 144.5 54t57.5 153q0 100 -57 154t-145 54q-87 0 -144.5 -58t-57.5 -149z" />
<glyph unicode="c" horiz-adv-x="521" d="M48 247q0 115 72.5 185t181.5 70q104 0 180 -74l-31 -31q-59 59 -149 59q-87 0 -146.5 -56.5t-59.5 -152.5t59.5 -152.5t146.5 -56.5q86 0 147 61l33 -33q-74 -74 -180 -74q-107 0 -180.5 70.5t-73.5 184.5z" />
<glyph unicode="d" d="M49 247q0 119 70.5 187t177.5 68q67 0 121.5 -29t83.5 -87v314h48v-700h-48v109q-30 -55 -86 -86t-120 -31q-107 0 -177 68t-70 187zM97 247q0 -99 57.5 -153t144.5 -54q88 0 145 58t57 150q0 91 -57.5 149t-144.5 58q-88 0 -145 -54t-57 -154z" />
<glyph unicode="e" horiz-adv-x="587" d="M48 247q0 110 73 182.5t178 72.5q114 0 185.5 -71t58.5 -207h-445q7 -84 64.5 -134t136.5 -50q51 0 101 20t77 55l35 -28q-35 -46 -93 -70.5t-120 -24.5q-107 0 -179 70t-72 185zM98 267h401q-1 90 -55 140t-145 50q-79 0 -136 -51t-65 -139z" />
<glyph unicode="f" horiz-adv-x="358" d="M34 447v43h101v51q0 169 148 169q53 0 98 -34l-24 -36q-42 25 -76 25q-98 0 -98 -124v-51h163v-43h-163v-447h-48v447h-101z" />
<glyph unicode="g" horiz-adv-x="606" d="M49 261q0 112 78 176.5t177 64.5q91 0 152 -43l51 60l32 -28l-51 -60q33 -36 51 -73t18 -97q0 -71 -41 -133.5t-117 -80.5q70 -16 112 -57t42 -106q0 -85 -72.5 -133t-176.5 -48q-103 0 -173.5 53t-70.5 144h49q0 -72 57.5 -111t137.5 -39q83 0 142 33.5t59 100.5 t-61 101.5t-140 34.5q-114 0 -184.5 64t-70.5 177zM98 261q0 -96 57 -145.5t149 -49.5q91 0 148 57.5t57 137.5q0 96 -60 145.5t-145 49.5q-80 0 -143 -50.5t-63 -144.5z" />
<glyph unicode="h" horiz-adv-x="588" d="M81 0v700h47v-298q55 97 178 99q101 0 154 -59t53 -159v-283h-48v283q0 80 -39.5 125.5t-119.5 45.5q-77 0 -126.5 -52.5t-49.5 -130.5v-271h-49z" />
<glyph unicode="i" horiz-adv-x="211" d="M67 655q0 18 12.5 28.5t27 10.5t27 -10.5t12.5 -28.5t-12.5 -28.5t-27 -10.5t-27 10.5t-12.5 28.5zM81 0v496h49v-496h-49z" />
<glyph unicode="j" horiz-adv-x="210" d="M-92 -216l14 42q35 -20 75 -20q52 0 68 31.5t16 91.5v566h48v-566q1 -81 -27.5 -125t-104.5 -44q-44 0 -89 24zM65 660q0 18 12.5 28.5t27 10.5t27 -10.5t12.5 -28.5t-12.5 -28.5t-27 -10.5t-27 10.5t-12.5 28.5z" />
<glyph unicode="k" horiz-adv-x="464" d="M81 0v700h48v-422l233 216h65v-2l-250 -231l279 -258v-3h-62l-265 242v-242h-48z" />
<glyph unicode="l" horiz-adv-x="225" d="M88 0v700h49v-700h-49z" />
<glyph unicode="m" horiz-adv-x="937" d="M81 0v494h46l1 -82q48 92 161 92q62 0 112.5 -30t70.5 -92q22 58 72.5 90t110.5 32q91 0 149 -58t58 -150v-296h-49v296q0 71 -44 116.5t-114 45.5t-114.5 -46.5t-44.5 -118.5v-293h-49v293q0 72 -44.5 118t-114.5 46t-114 -46t-44 -118v-293h-49z" />
<glyph unicode="n" horiz-adv-x="603" d="M81 0v494h48v-88q53 95 176 97q100 0 161.5 -58.5t61.5 -159.5v-285h-49v284q0 83 -47 127.5t-129 43.5q-76 -1 -124.5 -52t-48.5 -128v-275h-49z" />
<glyph unicode="o" horiz-adv-x="598" d="M48 245q0 115 72 186t179 71t179 -71t72 -186t-72 -184t-179 -69t-179 69t-72 184zM96 245q0 -93 58 -149t145 -56t145 56t58 149q0 94 -58.5 152.5t-144.5 58.5t-144.5 -58.5t-58.5 -152.5z" />
<glyph unicode="p" horiz-adv-x="632" d="M81 -239v733h48v-117q30 57 86.5 90.5t127.5 33.5q105 -4 172.5 -71.5t67.5 -182.5q0 -120 -71 -188t-180 -68q-65 0 -119 31.5t-85 91.5v-353h-47zM132 246q0 -90 57.5 -149t142.5 -59q88 0 145 54.5t57 154.5t-57 153.5t-145 53.5q-86 0 -143 -58.5t-57 -149.5z" />
<glyph unicode="q" horiz-adv-x="632" d="M49 247q0 115 67.5 182.5t172.5 71.5q71 0 127.5 -33.5t86.5 -90.5v117h48v-733h-47v353q-31 -60 -85 -91.5t-119 -31.5q-109 0 -180 68t-71 188zM98 247q0 -100 57 -154.5t145 -54.5q85 0 142.5 59t57.5 149q0 91 -57 149.5t-143 58.5q-88 0 -145 -53.5t-57 -153.5z" />
<glyph unicode="r" horiz-adv-x="403" d="M81 0v494h46l2 -88q22 47 67 70t97 23q56 2 106 -29l-22 -40q-37 23 -84 23q-69 -1 -116 -49t-47 -116v-288h-49z" />
<glyph unicode="s" horiz-adv-x="501" d="M39 91l36 32q29 -42 78.5 -63t102.5 -21q36 0 67 6.5t58.5 29t28.5 58.5q1 21 -9 36.5t-22.5 25t-38 17t-42.5 11t-49 8.5q-37 6 -58 10.5t-50 14.5t-44.5 23t-27.5 34.5t-12 50.5q-1 68 56.5 103.5t139.5 34.5q114 0 184 -66l-30 -32q-59 52 -154 52q-63 1 -106.5 -22.5 t-42.5 -68.5q0 -16 6.5 -28.5t20.5 -22t24.5 -15t33.5 -11t31.5 -7.5t33.5 -6q102 -17 138 -36q69 -34 66 -109q-1 -51 -35 -83.5t-76.5 -43.5t-91.5 -11q-68 0 -126.5 25.5t-89.5 73.5z" />
<glyph unicode="t" horiz-adv-x="376" d="M33 453v41h105v144l48 5v-149h168v-41h-168v-301q0 -57 18.5 -85.5t72.5 -28.5q34 0 76 20l17 -40q-52 -25 -93 -25q-75 0 -107 41t-32 118v301h-105z" />
<glyph unicode="u" horiz-adv-x="602" d="M74 210v285h49v-284q0 -83 47 -127.5t129 -43.5q76 1 124.5 52t48.5 128v275h49v-495h-48v89q-53 -95 -176 -97q-100 0 -161.5 58.5t-61.5 159.5z" />
<glyph unicode="v" horiz-adv-x="542" d="M37 494h54l180 -437l180 437h54l-207 -494h-54z" />
<glyph unicode="w" horiz-adv-x="822" d="M40 494h54l149 -437l151 437h35l150 -437l148 437h54l-175 -494h-54l-80 216l-60 192l-62 -193l-80 -215h-54z" />
<glyph unicode="x" horiz-adv-x="474" d="M17 0v2l191 254l-177 236v2h59l147 -202l147 202h59v-2l-177 -236l191 -254v-2h-58l-162 221l-162 -221h-58z" />
<glyph unicode="y" horiz-adv-x="533" d="M39 494h53q142 -361 173 -435q29 75 181 435h53l-314 -733h-52l104 245z" />
<glyph unicode="z" horiz-adv-x="456" d="M30 0v17l315 433h-299v44h372v-19l-312 -429h312v-46h-388z" />
<glyph unicode="{" horiz-adv-x="304" d="M37 276v39q79 0 79 118v135q0 87 33.5 120t118.5 17v-34q-64 10 -86 -12t-22 -91v-135q0 -20 -1 -33.5t-5 -32.5t-11 -31t-21 -23.5t-34 -16.5q24 -6 40 -20.5t22 -36t8 -39t2 -42.5v-147q0 -68 22 -88.5t86 -9.5v-38q-90 -13 -121 17.5t-31 118.5v147q0 118 -79 118z " />
<glyph unicode="|" horiz-adv-x="236" d="M92 -118v823h52v-823h-52z" />
<glyph unicode="}" horiz-adv-x="303" d="M35 -93q64 -11 86 9.5t22 88.5v147q0 25 2 42.5t8 39t22 36t40 20.5q-20 5 -34 16.5t-21 23.5t-11 31t-5 32.5t-1 33.5v135q0 69 -22 91t-86 12v34q85 16 118.5 -17t33.5 -120v-135q0 -118 79 -118v-39q-79 0 -79 -118v-147q0 -88 -31 -118.5t-121 -17.5v38z" />
<glyph unicode="~" horiz-adv-x="645" d="M78 280q30 68 85 91.5t126 -11.5l102 -58q102 -55 138 48l41 -16q-26 -69 -76 -90.5t-117 11.5l-109 63q-52 24 -92.5 7t-60.5 -63z" />
<glyph unicode="&#xa1;" horiz-adv-x="220" d="M69 464q0 18 12.5 28.5t27 10.5t27 -10.5t12.5 -28.5t-12.5 -28.5t-27 -10.5t-27 10.5t-12.5 28.5zM85 -201v559h51v-559h-51z" />
<glyph unicode="&#xa2;" horiz-adv-x="538" d="M49 237q0 106 65 174t166 77v60h48v-60q91 -10 156 -73l-34 -31q-62 60 -146 60q-89 0 -148 -54.5t-59 -152.5q0 -100 58.5 -153t148.5 -53q82 0 146 62l34 -35q-66 -64 -156 -72v-71h-48v71q-101 9 -166 75t-65 176z" />
<glyph unicode="&#xa3;" horiz-adv-x="644" d="M59 0v45q50 51 74 98t24.5 85t-7.5 80h-91v43h80q-27 101 -27 156q0 98 67.5 148.5t171.5 50.5q99 0 162 -42t64 -139h-46q0 52 -29 83.5t-66 41.5t-85 10q-86 0 -138 -39.5t-52 -113.5q0 -19 3 -41.5t6 -37t9.5 -41t8.5 -36.5h259v-43h-250q7 -46 7 -87.5t-21 -86.5 t-64 -86h465v-48h-525z" />
<glyph unicode="&#xa4;" horiz-adv-x="572" d="M67 136l60 60q-43 55 -43.5 129.5t42.5 129.5l-59 59l35 35l59 -60q52 39 125 39q72 0 124 -39l60 60l35 -35l-59 -59q43 -56 42.5 -130t-43.5 -129l60 -60l-35 -35l-61 60q-50 -37 -123 -37t-124 37l-60 -60zM286 171q42 0 74.5 17t49.5 44.5t25 60.5t0 66.5t-25 61 t-49.5 44.5t-74.5 17t-75 -17t-50 -44.5t-25 -60.5t0 -66.5t25 -61t50 -44.5t75 -17z" />
<glyph unicode="&#xa5;" horiz-adv-x="661" d="M30 699v1h61l239 -368l240 368h61v-1l-254 -387h139v-41h-160v-63h160v-41h-160v-167h-53v167h-154v41h154v63h-154v41h133z" />
<glyph unicode="&#xa6;" horiz-adv-x="238" d="M92 -88v363h54v-363h-54zM92 342v364h54v-364h-54z" />
<glyph unicode="&#xa7;" horiz-adv-x="540" d="M58 80l36 31q29 -41 78.5 -61.5t102.5 -20.5q26 0 49.5 4t48.5 13.5t40.5 28.5t16.5 46q1 31 -25 51t-48.5 25.5t-78.5 14.5q-7 1 -10 2q-191 30 -193 134q-1 37 24.5 70.5t68.5 48.5q-92 33 -93 113q-1 67 57 101.5t140 33.5q115 0 184 -65l-30 -31q-59 51 -154 51 q-62 1 -106 -22.5t-43 -66.5q1 -23 14 -40t39.5 -27t44.5 -14.5t51 -10.5q34 -5 57 -10t54.5 -16t50 -24.5t31.5 -36.5t12 -52q-3 -87 -102 -111q106 -32 102 -121q-1 -50 -35 -82t-76 -42.5t-92 -10.5q-68 0 -126.5 25t-89.5 72zM123 349q1 -32 33 -55.5t77.5 -29.5 t90.5 -1t76 29t30 61q-1 32 -33 56t-78 31t-91 3t-76 -29t-29 -65z" />
<glyph unicode="&#xa8;" horiz-adv-x="455" d="M64 678q0 18 12.5 28.5t27 10.5t27 -10.5t12.5 -28.5t-12.5 -28.5t-27 -10.5t-27 10.5t-12.5 28.5zM278 678q0 18 12.5 28.5t27 10.5t27 -10.5t12.5 -28.5t-12.5 -28.5t-27 -10.5t-27 10.5t-12.5 28.5z" />
<glyph unicode="&#xa9;" horiz-adv-x="836" d="M57 348q0 156 96.5 260.5t264.5 104.5q167 0 264 -104.5t97 -260.5q0 -155 -97 -260t-264 -105q-168 0 -264.5 105t-96.5 260zM107 348q0 -138 83.5 -229t227.5 -91t227 91t83 229q0 139 -83 230t-227 91t-227.5 -91t-83.5 -230zM234 351q0 83 56.5 139t139.5 56 q82 0 137 -57l-35 -36q-44 42 -102 42q-61 0 -103 -41.5t-42 -102.5t41.5 -103t103.5 -42q59 0 102 43l35 -37q-55 -57 -137 -57q-83 0 -139.5 56.5t-56.5 139.5z" />
<glyph unicode="&#xaa;" horiz-adv-x="500" d="M74 540q0 76 47.5 121t117.5 45q84 0 127 -67v62h44v-324h-44v63q-45 -67 -127 -67q-70 0 -117.5 45.5t-47.5 121.5zM86 267v48h334v-48h-334zM124 540q0 -53 34 -87t84 -34q45 0 76 25t38 60.5t0 70.5t-38 60t-76 25q-50 0 -84 -33.5t-34 -86.5z" />
<glyph unicode="&#xab;" horiz-adv-x="389" d="M50 297l138 219h52v-5l-135 -214l135 -214v-6h-52zM144 297l138 219h52v-5l-135 -214l135 -214v-6h-52z" />
<glyph unicode="&#xac;" horiz-adv-x="502" d="M77 311v51h347v-187h-50v136h-297z" />
<glyph unicode="&#xad;" horiz-adv-x="496" d="M73 261v50h350v-50h-350z" />
<glyph unicode="&#xae;" horiz-adv-x="836" d="M57 348q0 156 97 260.5t264 104.5q168 0 264.5 -104.5t96.5 -260.5q0 -155 -96.5 -260t-264.5 -105q-167 0 -264 105t-97 260zM108 348q0 -138 83 -229t227 -91t227.5 91t83.5 229q0 139 -83.5 230t-227.5 91t-227 -91t-83 -230zM285 162v383h170q58 0 92 -34.5t36 -77.5 t-27.5 -81.5t-83.5 -45.5l120 -136v-8h-52l-125 144h-83v-144h-47zM332 348h120q31 0 52.5 15.5t27 37.5t0.5 44.5t-25.5 38t-51.5 15.5h-123v-151z" />
<glyph unicode="&#xaf;" horiz-adv-x="394" d="M35 656v46h314v-46h-314z" />
<glyph unicode="&#xb0;" horiz-adv-x="325" d="M163 529q-50 0 -78.5 30.5t-28.5 67.5t28.5 67.5t78.5 30.5t78 -30.5t28 -67.5t-28 -67.5t-78 -30.5zM163 568q37 0 52 30t0 59.5t-52 29.5t-54 -29.5t-1.5 -59.5t55.5 -30z" />
<glyph unicode="&#xb1;" horiz-adv-x="526" d="M77 345v45h163v164h46v-164h162v-45h-162v-166h-46v166h-163zM85 47v47h358v-47h-358z" />
<glyph unicode="&#xb2;" horiz-adv-x="358" d="M45 428v80q0 52 40.5 80.5t97.5 28.5q85 0 85 66q0 64 -87 64q-41 0 -64.5 -13t-23.5 -51h-46q0 106 135 106q56 0 94.5 -24t38.5 -82q0 -108 -132 -108q-33 0 -61.5 -15t-28.5 -53v-30h219v-49h-267z" />
<glyph unicode="&#xb3;" horiz-adv-x="356" d="M40 532h48q0 -62 88 -62q91 0 91 65q0 21 -22 39.5t-66 18.5h-55v43h51q34 0 60 13.5t26 42.5q0 22 -23 39.5t-63 17.5q-32 0 -59.5 -15t-27.5 -50h-43q0 53 37.5 79t92.5 26t93.5 -25.5t38.5 -72.5q0 -30 -16 -50t-42 -27q30 -8 47.5 -31t17.5 -48q0 -110 -139 -110 q-58 0 -96 25.5t-39 81.5z" />
<glyph unicode="&#xb4;" horiz-adv-x="224" d="M39 577v4l75 120h65v-1l-92 -123h-48z" />
<glyph unicode="&#xb6;" horiz-adv-x="782" d="M276 195q-68 0 -120.5 28t-79.5 72t-39 98t1.5 108t41.5 98t80.5 72t119.5 28h467v-44h-106v-871h-47v871h-269v-871h-49v411z" />
<glyph unicode="&#xb7;" horiz-adv-x="225" d="M73 290q0 18 12.5 28.5t27 10.5t27 -10.5t12.5 -28.5t-12.5 -28.5t-27 -10.5t-27 10.5t-12.5 28.5z" />
<glyph unicode="&#xb8;" horiz-adv-x="296" d="M22 -154l28 27q27 -39 75 -39q53 0 63 38q9 30 -16.5 49t-77.5 8l-6 5l20 88h39l-13 -58q57 3 80.5 -28.5t13.5 -72.5q-9 -35 -38 -52.5t-65 -17.5q-74 0 -103 53z" />
<glyph unicode="&#xb9;" horiz-adv-x="241" d="M38 427v41h63v260l-55 -14v44l103 23v-313h65v-41h-176z" />
<glyph unicode="&#xba;" horiz-adv-x="485" d="M77 540q0 76 47.5 121t117.5 45t117.5 -45t47.5 -121t-47.5 -121.5t-117.5 -45.5t-117.5 45.5t-47.5 121.5zM83 260v48h319v-48h-319zM127 540q0 -53 32.5 -87t82.5 -34t82.5 34t32.5 87t-32.5 86.5t-82.5 33.5t-82.5 -33.5t-32.5 -86.5z" />
<glyph unicode="&#xbb;" horiz-adv-x="389" d="M55 78v6l135 214l-135 214v5h52l138 -219l-138 -220h-52zM149 78v6l135 214l-135 214v5h52l138 -219l-138 -220h-52z" />
<glyph unicode="&#xbc;" horiz-adv-x="717" d="M50 348v41h63v260l-55 -14v44l103 23v-313h65v-41h-176zM141 -2l371 705h54l-372 -705h-53zM399 116l175 240h65v-233h42v-44h-42v-78h-45v78h-192zM455 123h139v189z" />
<glyph unicode="&#xbd;" horiz-adv-x="776" d="M50 349v41h63v260l-55 -14v44l103 23v-313h65v-41h-176zM139 -2l371 705h54l-372 -705h-53zM460 0v80q0 52 40.5 80.5t97.5 28.5q85 0 85 66q0 64 -87 64q-41 0 -64.5 -13t-23.5 -51h-46q0 106 135 106q56 0 94.5 -24t38.5 -82q0 -108 -132 -108q-33 0 -61.5 -15 t-28.5 -53v-37h216v-42h-264z" />
<glyph unicode="&#xbe;" horiz-adv-x="755" d="M45 460h47q0 -61 86 -61q90 0 90 64q0 20 -22 38.5t-65 18.5h-54v42h50q33 0 59 13t26 42q0 22 -23 39t-62 17q-31 0 -58 -14.5t-27 -49.5h-42q0 52 36.5 77.5t90.5 25.5q55 0 92.5 -24.5t37.5 -71.5q0 -60 -57 -76q30 -7 47 -30t17 -47q0 -59 -39 -83.5t-98 -24.5 q-56 0 -93.5 25t-38.5 80zM194 -2l371 705h54l-372 -705h-53zM436 116l175 240h65v-233h42v-44h-42v-78h-45v78h-192zM492 123h139v189z" />
<glyph unicode="&#xbf;" horiz-adv-x="606" d="M36 -15q0 82 42.5 127.5t102.5 63.5q79 24 99.5 54.5t20.5 124.5h50q0 -104 -32.5 -150.5t-124.5 -73.5q-107 -32 -107 -146q0 -153 219 -153q38 0 73 7t68.5 23.5t54 49t20.5 76.5h52q0 -44 -16 -79.5t-42 -58t-61.5 -38t-72.5 -22t-76 -6.5q-41 0 -77.5 5.5t-72.5 19.5 t-62 36t-42 58t-16 82zM283 460q0 25 19.5 35t39 0t19.5 -35t-19.5 -35t-39 0t-19.5 35z" />
<glyph unicode="&#xc0;" horiz-adv-x="739" d="M26 0l314 700h59l314 -700h-58l-77 172h-418l-76 -172h-58zM181 222h376l-188 426zM257 895v1h65l75 -120v-4h-48z" />
<glyph unicode="&#xc1;" horiz-adv-x="739" d="M26 0l314 700h59l314 -700h-58l-77 172h-418l-76 -172h-58zM181 222h376l-188 426zM337 771v4l75 120h65v-1l-92 -123h-48z" />
<glyph unicode="&#xc2;" horiz-adv-x="739" d="M26 0l314 700h59l314 -700h-58l-77 172h-418l-76 -172h-58zM181 222h376l-188 426zM207 759v7l142 132h40l142 -132v-7h-53l-109 96l-109 -96h-53z" />
<glyph unicode="&#xc3;" horiz-adv-x="739" d="M26 0l314 700h59l314 -700h-58l-77 172h-418l-76 -172h-58zM181 222h376l-188 426zM244 796q5 44 40.5 60.5t71.5 -2.5l41 -22q18 -10 36.5 -4t24.5 30l34 -11q-4 -45 -40 -61.5t-72 3.5l-41 22q-18 10 -36.5 3.5t-24.5 -29.5z" />
<glyph unicode="&#xc4;" horiz-adv-x="739" d="M26 0l314 700h59l314 -700h-58l-77 172h-418l-76 -172h-58zM181 222h376l-188 426zM224 811q0 18 12.5 28.5t27 10.5t27 -10.5t12.5 -28.5t-12.5 -28.5t-27 -10.5t-27 10.5t-12.5 28.5zM438 811q0 18 12.5 28.5t27 10.5t27 -10.5t12.5 -28.5t-12.5 -28.5t-27 -10.5 t-27 10.5t-12.5 28.5z" />
<glyph unicode="&#xc5;" horiz-adv-x="739" d="M26 0l311 693q-71 18 -71 95q0 45 31 70.5t74 25.5t75 -25.5t32 -70.5q0 -37 -20.5 -62.5t-55.5 -33.5l311 -692h-58l-77 172h-418l-76 -172h-58zM181 222h376l-188 426zM370 727q39 0 55 29.5t0 59.5t-55 30q-37 0 -52.5 -30t0 -59.5t52.5 -29.5z" />
<glyph unicode="&#xc6;" horiz-adv-x="929" d="M-11 0l426 700h448v-49h-365v-274h345v-49h-345v-277h379v-51h-429v248h-250l-147 -248h-62zM227 297h221v362h-5z" />
<glyph unicode="&#xc7;" horiz-adv-x="715" d="M55 346q-1 96 38 177t123 133t199 52q150 0 255 -105l-37 -32q-89 89 -218 89q-147 0 -228 -89.5t-80 -222.5q2 -130 82.5 -218t225.5 -88q128 0 219 89l36 -34q-102 -102 -247 -105l-12 -53q57 3 81 -28.5t14 -72.5q-9 -35 -38.5 -53.5t-65.5 -18.5q-32 0 -61 14t-43 40 l29 28q27 -39 75 -39q53 0 63 38q9 30 -17 49t-78 8l-6 5l21 84q-156 10 -242.5 110t-87.5 243z" />
<glyph unicode="&#xc8;" horiz-adv-x="649" d="M99 0v700h483v-51h-430v-272h410v-49h-410v-276h442v-52h-495zM260 904v1h65l75 -120v-4h-48z" />
<glyph unicode="&#xc9;" horiz-adv-x="649" d="M99 0v700h483v-51h-430v-272h410v-49h-410v-276h442v-52h-495zM308 778v4l75 120h65v-1l-92 -123h-48z" />
<glyph unicode="&#xca;" horiz-adv-x="649" d="M99 0v700h483v-51h-430v-272h410v-49h-410v-276h442v-52h-495zM188 773v7l142 132h40l142 -132v-7h-53l-109 96l-109 -96h-53z" />
<glyph unicode="&#xcb;" horiz-adv-x="649" d="M99 0v700h483v-51h-430v-272h410v-49h-410v-276h442v-52h-495zM210 818q0 18 12.5 28.5t27 10.5t27 -10.5t12.5 -28.5t-12.5 -28.5t-27 -10.5t-27 10.5t-12.5 28.5zM424 818q0 18 12.5 28.5t27 10.5t27 -10.5t12.5 -28.5t-12.5 -28.5t-27 -10.5t-27 10.5t-12.5 28.5z" />
<glyph unicode="&#xcc;" horiz-adv-x="251" d="M17 901v1h65l75 -120v-4h-48zM99 0v700h53v-700h-53z" />
<glyph unicode="&#xcd;" horiz-adv-x="251" d="M97 777v4l75 120h65v-1l-92 -123h-48zM99 0v700h53v-700h-53z" />
<glyph unicode="&#xce;" horiz-adv-x="251" d="M-24 760v7l128 131h36l127 -131v-7h-47l-98 95l-98 -95h-48zM99 0v700h53v-700h-53z" />
<glyph unicode="&#xcf;" horiz-adv-x="251" d="M6 810q0 18 12.5 28.5t27 10.5t27 -10.5t12.5 -28.5t-12.5 -28.5t-27 -10.5t-27 10.5t-12.5 28.5zM99 0v700h53v-700h-53zM166 810q0 18 12.5 28.5t27 10.5t27 -10.5t12.5 -28.5t-12.5 -28.5t-27 -10.5t-27 10.5t-12.5 28.5z" />
<glyph unicode="&#xd0;" horiz-adv-x="752" d="M38 317v49h67v334h237q86 0 154.5 -29t111 -78t65 -109t24.5 -126q2 -68 -19.5 -131t-64 -114.5t-112.5 -82t-159 -30.5h-237v317h-67zM159 52h183q146 0 224.5 91.5t76.5 214.5q-2 120 -80.5 205.5t-220.5 85.5h-183v-283h163v-49h-163v-265z" />
<glyph unicode="&#xd1;" horiz-adv-x="745" d="M99 0v700h23l471 -579v579h53v-700h-21l-472 578v-578h-54zM265 793q5 44 40.5 60.5t71.5 -2.5l41 -22q18 -10 36.5 -4t24.5 30l34 -11q-4 -45 -40 -61.5t-72 3.5l-41 22q-18 10 -36.5 3.5t-24.5 -29.5z" />
<glyph unicode="&#xd2;" horiz-adv-x="814" d="M54 351q0 97 38 177t120 131.5t195 51.5q168 0 261 -105.5t92 -256.5q0 -70 -23 -134t-65.5 -115t-111 -81.5t-153.5 -30.5t-153.5 30.5t-111.5 82t-65.5 115.5t-22.5 135zM107 350q1 -128 80 -220t220 -92q96 0 166 46t102.5 115t32.5 151q0 130 -79 220.5t-222 90.5 q-144 0 -222.5 -89.5t-77.5 -221.5zM301 906v1h65l75 -120v-4h-48z" />
<glyph unicode="&#xd3;" horiz-adv-x="814" d="M54 351q0 97 38 177t120 131.5t195 51.5q168 0 261 -105.5t92 -256.5q0 -70 -23 -134t-65.5 -115t-111 -81.5t-153.5 -30.5t-153.5 30.5t-111.5 82t-65.5 115.5t-22.5 135zM107 350q1 -128 80 -220t220 -92q96 0 166 46t102.5 115t32.5 151q0 130 -79 220.5t-222 90.5 q-144 0 -222.5 -89.5t-77.5 -221.5zM379 783v4l75 120h65v-1l-92 -123h-48z" />
<glyph unicode="&#xd4;" horiz-adv-x="814" d="M54 351q0 97 38 177t120 131.5t195 51.5q168 0 261 -105.5t92 -256.5q0 -70 -23 -134t-65.5 -115t-111 -81.5t-153.5 -30.5t-153.5 30.5t-111.5 82t-65.5 115.5t-22.5 135zM107 350q1 -128 80 -220t220 -92q96 0 166 46t102.5 115t32.5 151q0 130 -79 220.5t-222 90.5 q-144 0 -222.5 -89.5t-77.5 -221.5zM252 779v7l142 132h40l142 -132v-7h-53l-109 96l-109 -96h-53z" />
<glyph unicode="&#xd5;" horiz-adv-x="814" d="M54 351q0 97 38 177t120 131.5t195 51.5q168 0 261 -105.5t92 -256.5q0 -70 -23 -134t-65.5 -115t-111 -81.5t-153.5 -30.5t-153.5 30.5t-111.5 82t-65.5 115.5t-22.5 135zM107 350q1 -128 80 -220t220 -92q96 0 166 46t102.5 115t32.5 151q0 130 -79 220.5t-222 90.5 q-144 0 -222.5 -89.5t-77.5 -221.5zM283 809q5 44 40.5 60.5t71.5 -2.5l41 -22q18 -10 36.5 -4t24.5 30l34 -11q-4 -45 -40 -61.5t-72 3.5l-41 22q-18 10 -36.5 3.5t-24.5 -29.5z" />
<glyph unicode="&#xd6;" horiz-adv-x="814" d="M54 351q0 97 38 177t120 131.5t195 51.5q168 0 261 -105.5t92 -256.5q0 -70 -23 -134t-65.5 -115t-111 -81.5t-153.5 -30.5t-153.5 30.5t-111.5 82t-65.5 115.5t-22.5 135zM107 350q1 -128 80 -220t220 -92q96 0 166 46t102.5 115t32.5 151q0 130 -79 220.5t-222 90.5 q-144 0 -222.5 -89.5t-77.5 -221.5zM272 822q0 18 12.5 28.5t27 10.5t27 -10.5t12.5 -28.5t-12.5 -28.5t-27 -10.5t-27 10.5t-12.5 28.5zM486 822q0 18 12.5 28.5t27 10.5t27 -10.5t12.5 -28.5t-12.5 -28.5t-27 -10.5t-27 10.5t-12.5 28.5z" />
<glyph unicode="&#xd7;" horiz-adv-x="455" d="M70 196l127 128l-124 123l31 31l124 -123l122 122l34 -33l-123 -123l124 -123l-31 -31l-124 123l-127 -127z" />
<glyph unicode="&#xd8;" horiz-adv-x="814" d="M54 351q0 97 38 177t120 131.5t195 51.5q96 0 170 -38l50 88h54l-64 -111q70 -49 106.5 -128.5t36.5 -172.5q0 -70 -23 -134t-65.5 -115t-111 -81.5t-153.5 -30.5q-79 0 -150 28l-54 -95h-53l66 116q-79 48 -120.5 132t-41.5 182zM107 350q0 -82 35 -153.5t100 -113.5 l310 546q-66 32 -145 32q-144 0 -222.5 -89.5t-77.5 -221.5zM283 61q55 -23 124 -23q96 0 166 46t102.5 115t32.5 151q0 77 -30 144t-86 110z" />
<glyph unicode="&#xd9;" horiz-adv-x="718" d="M91 265v435h53v-435q0 -54 18.5 -98t48.5 -71t69 -42t79 -15t79 15t69 42t48.5 71t18.5 98v435h53v-435q0 -66 -23 -119.5t-60.5 -86.5t-86 -51t-98.5 -18t-98.5 17.5t-86 50.5t-60.5 87t-23 120zM262 897v1h65l75 -120v-4h-48z" />
<glyph unicode="&#xda;" horiz-adv-x="718" d="M91 265v435h53v-435q0 -54 18.5 -98t48.5 -71t69 -42t79 -15t79 15t69 42t48.5 71t18.5 98v435h53v-435q0 -66 -23 -119.5t-60.5 -86.5t-86 -51t-98.5 -18t-98.5 17.5t-86 50.5t-60.5 87t-23 120zM318 775v4l75 120h65v-1l-92 -123h-48z" />
<glyph unicode="&#xdb;" horiz-adv-x="718" d="M91 265v435h53v-435q0 -54 18.5 -98t48.5 -71t69 -42t79 -15t79 15t69 42t48.5 71t18.5 98v435h53v-435q0 -66 -23 -119.5t-60.5 -86.5t-86 -51t-98.5 -18t-98.5 17.5t-86 50.5t-60.5 87t-23 120zM197 768v7l142 132h40l142 -132v-7h-53l-109 96l-109 -96h-53z" />
<glyph unicode="&#xdc;" horiz-adv-x="718" d="M91 265v435h53v-435q0 -54 18.5 -98t48.5 -71t69 -42t79 -15t79 15t69 42t48.5 71t18.5 98v435h53v-435q0 -66 -23 -119.5t-60.5 -86.5t-86 -51t-98.5 -18t-98.5 17.5t-86 50.5t-60.5 87t-23 120zM213 819q0 18 12.5 28.5t27 10.5t27 -10.5t12.5 -28.5t-12.5 -28.5 t-27 -10.5t-27 10.5t-12.5 28.5zM427 819q0 18 12.5 28.5t27 10.5t27 -10.5t12.5 -28.5t-12.5 -28.5t-27 -10.5t-27 10.5t-12.5 28.5z" />
<glyph unicode="&#xdd;" horiz-adv-x="659" d="M29 699v1h63l237 -368l238 368h63v-1l-274 -419v-280h-54v280zM289 777v4l75 120h65v-1l-92 -123h-48z" />
<glyph unicode="&#xde;" horiz-adv-x="673" d="M99 0v699h50v-122h257q55 0 99.5 -19.5t72 -52t42 -73.5t14.5 -84t-14.5 -84t-42 -73.5t-72 -52t-99.5 -19.5h-256v-119h-51zM150 168h256q48 0 85.5 20t57 51.5t28.5 70t0 76.5t-28.5 69.5t-57 51.5t-85.5 20h-256v-359z" />
<glyph unicode="&#xdf;" horiz-adv-x="595" d="M81 0v518q0 95 58.5 144t148.5 49q94 0 153.5 -44.5t59.5 -135.5q0 -54 -30.5 -94t-81.5 -53q158 -33 158 -201q0 -72 -33 -120t-85 -64.5t-111.5 -13t-116.5 26.5v46q75 -32 141.5 -30.5t112 43t45.5 111.5q0 175 -214 175h-85v44h81q30 0 57 5.5t54 19t43.5 40.5 t16.5 65q0 135 -163 135q-84 0 -121 -39.5t-40 -109.5v-517h-48z" />
<glyph unicode="&#xe0;" d="M48 247q0 111 72.5 182t178.5 71q63 0 117.5 -29t84.5 -85v108h49v-494h-49v105q-70 -113 -202 -113q-105 0 -178 72t-73 183zM97 247q0 -91 58 -149t144 -58q57 0 101 23t67 59t34 80t0 88.5t-34 80.5t-67 59t-101 23q-86 0 -144 -57.5t-58 -148.5zM210 707v1h65 l75 -120v-4h-48z" />
<glyph unicode="&#xe1;" d="M48 247q0 111 72.5 182t178.5 71q63 0 117.5 -29t84.5 -85v108h49v-494h-49v105q-70 -113 -202 -113q-105 0 -178 72t-73 183zM97 247q0 -91 58 -149t144 -58q57 0 101 23t67 59t34 80t0 88.5t-34 80.5t-67 59t-101 23q-86 0 -144 -57.5t-58 -148.5zM268 582v4l75 120h65 v-1l-92 -123h-48z" />
<glyph unicode="&#xe2;" d="M48 247q0 111 72.5 182t178.5 71q63 0 117.5 -29t84.5 -85v108h49v-494h-49v105q-70 -113 -202 -113q-105 0 -178 72t-73 183zM97 247q0 -91 58 -149t144 -58q57 0 101 23t67 59t34 80t0 88.5t-34 80.5t-67 59t-101 23q-86 0 -144 -57.5t-58 -148.5zM147 564v7l142 132 h40l142 -132v-7h-53l-109 96l-109 -96h-53z" />
<glyph unicode="&#xe3;" d="M48 247q0 111 72.5 182t178.5 71q63 0 117.5 -29t84.5 -85v108h49v-494h-49v105q-70 -113 -202 -113q-105 0 -178 72t-73 183zM97 247q0 -91 58 -149t144 -58q57 0 101 23t67 59t34 80t0 88.5t-34 80.5t-67 59t-101 23q-86 0 -144 -57.5t-58 -148.5zM187 634 q5 44 40.5 60.5t71.5 -2.5l41 -22q18 -10 36.5 -4t24.5 30l34 -11q-4 -45 -40 -61.5t-72 3.5l-41 22q-18 10 -36.5 3.5t-24.5 -29.5z" />
<glyph unicode="&#xe4;" d="M48 247q0 111 72.5 182t178.5 71q63 0 117.5 -29t84.5 -85v108h49v-494h-49v105q-70 -113 -202 -113q-105 0 -178 72t-73 183zM97 247q0 -91 58 -149t144 -58q57 0 101 23t67 59t34 80t0 88.5t-34 80.5t-67 59t-101 23q-86 0 -144 -57.5t-58 -148.5zM172 668 q0 18 12.5 28.5t27 10.5t27 -10.5t12.5 -28.5t-12.5 -28.5t-27 -10.5t-27 10.5t-12.5 28.5zM386 668q0 18 12.5 28.5t27 10.5t27 -10.5t12.5 -28.5t-12.5 -28.5t-27 -10.5t-27 10.5t-12.5 28.5z" />
<glyph unicode="&#xe5;" d="M48 247q0 111 72.5 182t178.5 71q63 0 117.5 -29t84.5 -85v108h49v-494h-49v105q-70 -113 -202 -113q-105 0 -178 72t-73 183zM97 247q0 -91 58 -149t144 -58q57 0 101 23t67 59t34 80t0 88.5t-34 80.5t-67 59t-101 23q-86 0 -144 -57.5t-58 -148.5zM208 652 q0 43 30.5 67t73.5 24t75 -24t32 -67q0 -44 -30.5 -69t-77.5 -25q-48 0 -75.5 25t-27.5 69zM311 597q39 0 55 27.5t0 55t-55 27.5q-37 0 -52 -27.5t0 -55t52 -27.5z" />
<glyph unicode="&#xe6;" horiz-adv-x="1033" d="M48 247q0 111 72.5 182t178.5 71q63 0 119.5 -29.5t85.5 -84.5v108h41v-104q31 53 83.5 82.5t117.5 29.5q114 0 185.5 -71t58.5 -207h-447q7 -84 65 -133.5t138 -49.5q51 0 101 20t77 55l35 -28q-35 -46 -93 -70.5t-120 -24.5q-66 0 -119 28t-84 79v-100h-41v105 q-70 -113 -203 -113q-105 0 -178 72t-73 183zM97 247q0 -91 58 -149t144 -58q50 0 90.5 17.5t65 47t38 66.5t13.5 75.5t-13.5 75.5t-38 66.5t-65 47t-90.5 17.5q-86 0 -144 -57.5t-58 -148.5zM543 267h403q-1 90 -55 140t-145 50q-79 0 -137 -51t-66 -139z" />
<glyph unicode="&#xe7;" horiz-adv-x="523" d="M49 247q0 115 72 183.5t182 68.5q104 0 180 -74l-32 -31q-59 59 -148 59q-88 0 -147 -55t-59 -151t59 -151t147 -55q86 0 147 61l33 -33q-74 -74 -180 -74h-1l-11 -48q57 3 80.5 -28.5t13.5 -72.5q-9 -35 -38 -52.5t-65 -17.5q-74 0 -103 53l28 27q27 -39 75 -39 q53 0 63 38q9 30 -16.5 49t-77.5 8l-6 5l18 81q-93 12 -153.5 79t-60.5 170z" />
<glyph unicode="&#xe8;" horiz-adv-x="587" d="M48 247q0 110 73 182.5t178 72.5q114 0 185.5 -71t58.5 -207h-445q7 -84 64.5 -134t136.5 -50q51 0 101 20t77 55l35 -28q-35 -46 -93 -70.5t-120 -24.5q-107 0 -179 70t-72 185zM98 267h401q-1 90 -55 140t-145 50q-79 0 -136 -51t-65 -139zM214 700v1h65l75 -120v-4 h-48z" />
<glyph unicode="&#xe9;" horiz-adv-x="587" d="M48 247q0 110 73 182.5t178 72.5q114 0 185.5 -71t58.5 -207h-445q7 -84 64.5 -134t136.5 -50q51 0 101 20t77 55l35 -28q-35 -46 -93 -70.5t-120 -24.5q-107 0 -179 70t-72 185zM98 267h401q-1 90 -55 140t-145 50q-79 0 -136 -51t-65 -139zM265 577v4l75 120h65v-1 l-92 -123h-48z" />
<glyph unicode="&#xea;" horiz-adv-x="587" d="M48 247q0 110 73 182.5t178 72.5q114 0 185.5 -71t58.5 -207h-445q7 -84 64.5 -134t136.5 -50q51 0 101 20t77 55l35 -28q-35 -46 -93 -70.5t-120 -24.5q-107 0 -179 70t-72 185zM98 267h401q-1 90 -55 140t-145 50q-79 0 -136 -51t-65 -139zM145 562v7l142 132h40 l142 -132v-7h-53l-109 96l-109 -96h-53z" />
<glyph unicode="&#xeb;" horiz-adv-x="587" d="M48 247q0 110 73 182.5t178 72.5q114 0 185.5 -71t58.5 -207h-445q7 -84 64.5 -134t136.5 -50q51 0 101 20t77 55l35 -28q-35 -46 -93 -70.5t-120 -24.5q-107 0 -179 70t-72 185zM98 267h401q-1 90 -55 140t-145 50q-79 0 -136 -51t-65 -139zM160 661q0 18 12.5 28.5 t27 10.5t27 -10.5t12.5 -28.5t-12.5 -28.5t-27 -10.5t-27 10.5t-12.5 28.5zM374 661q0 18 12.5 28.5t27 10.5t27 -10.5t12.5 -28.5t-12.5 -28.5t-27 -10.5t-27 10.5t-12.5 28.5z" />
<glyph unicode="&#xec;" horiz-adv-x="211" d="M20 700v1h56l56 -117v-4h-46zM81 0v496h49v-496h-49z" />
<glyph unicode="&#xed;" horiz-adv-x="211" d="M76 580v4l56 117h56v-1l-66 -120h-46zM81 0v496h49v-496h-49z" />
<glyph unicode="&#xee;" horiz-adv-x="211" d="M-4 574v7l98 120h31l93 -120v-7h-42l-67 84l-70 -84h-43zM81 0v496h49v-496h-49z" />
<glyph unicode="&#xef;" horiz-adv-x="211" d="M-1 658q0 23 18.5 32t37.5 0t19 -32t-18.5 -32t-37.5 0t-19 32zM81 0v496h49v-496h-49zM137 658q0 23 18.5 32t37 0t18.5 -32t-18.5 -32t-37 0t-18.5 32z" />
<glyph unicode="&#xf0;" horiz-adv-x="608" d="M203 656l14 42q68 -22 116 -49l47 67l32 -22l-46 -65q187 -125 190 -376q2 -118 -67.5 -191t-186.5 -73q-70 0 -124.5 27.5t-83 71.5t-41.5 97t0 106.5t41.5 97.5t83 71.5t124.5 27.5q103 0 185 -78q-31 104 -147 182l-42 -60l-32 22l41 59q-54 30 -104 43zM302 35 q56 0 100 22.5t66.5 58.5t33 79.5t0 87t-33 79.5t-66.5 58.5t-100 22.5t-100 -22.5t-66.5 -58.5t-33 -79.5t0 -87t33 -79.5t66.5 -58.5t100 -22.5z" />
<glyph unicode="&#xf1;" horiz-adv-x="603" d="M81 0v494h48v-88q53 95 176 97q100 0 161.5 -58.5t61.5 -159.5v-285h-49v284q0 83 -47 127.5t-129 43.5q-76 -1 -124.5 -52t-48.5 -128v-275h-49zM180 635q5 41 40.5 56.5t70.5 -2.5l41 -21q18 -9 36.5 -3.5t24.5 27.5l34 -10q-4 -41 -40 -56.5t-72 2.5l-41 21 q-17 9 -35.5 3t-24.5 -27z" />
<glyph unicode="&#xf2;" horiz-adv-x="598" d="M48 245q0 115 72 186t179 71t179 -71t72 -186t-72 -184t-179 -69t-179 69t-72 184zM96 245q0 -93 58 -149t145 -56t145 56t58 149q0 94 -58.5 152.5t-144.5 58.5t-144.5 -58.5t-58.5 -152.5zM200 705v1h65l75 -116v-4h-48z" />
<glyph unicode="&#xf3;" horiz-adv-x="598" d="M48 245q0 115 72 186t179 71t179 -71t72 -186t-72 -184t-179 -69t-179 69t-72 184zM96 245q0 -93 58 -149t145 -56t145 56t58 149q0 94 -58.5 152.5t-144.5 58.5t-144.5 -58.5t-58.5 -152.5zM267 580v4l72 112h63v-1l-89 -115h-46z" />
<glyph unicode="&#xf4;" horiz-adv-x="598" d="M48 245q0 115 72 186t179 71t179 -71t72 -186t-72 -184t-179 -69t-179 69t-72 184zM96 245q0 -93 58 -149t145 -56t145 56t58 149q0 94 -58.5 152.5t-144.5 58.5t-144.5 -58.5t-58.5 -152.5zM144 572v7l142 132h40l142 -132v-7h-53l-109 96l-109 -96h-53z" />
<glyph unicode="&#xf5;" horiz-adv-x="598" d="M48 245q0 115 72 186t179 71t179 -71t72 -186t-72 -184t-179 -69t-179 69t-72 184zM96 245q0 -93 58 -149t145 -56t145 56t58 149q0 94 -58.5 152.5t-144.5 58.5t-144.5 -58.5t-58.5 -152.5zM180 632q5 42 40.5 58.5t72.5 -2.5l41 -21q18 -10 36.5 -4t24.5 29l34 -10 q-4 -43 -40 -59.5t-72 3.5l-41 21q-18 9 -37 3t-25 -28z" />
<glyph unicode="&#xf6;" horiz-adv-x="598" d="M48 245q0 115 72 186t179 71t179 -71t72 -186t-72 -184t-179 -69t-179 69t-72 184zM96 245q0 -93 58 -149t145 -56t145 56t58 149q0 94 -58.5 152.5t-144.5 58.5t-144.5 -58.5t-58.5 -152.5zM158 643q0 18 12.5 28.5t27 10.5t27 -10.5t12.5 -28.5t-12.5 -28.5t-27 -10.5 t-27 10.5t-12.5 28.5zM372 643q0 18 12.5 28.5t27 10.5t27 -10.5t12.5 -28.5t-12.5 -28.5t-27 -10.5t-27 10.5t-12.5 28.5z" />
<glyph unicode="&#xf7;" horiz-adv-x="559" d="M78 309v50h404v-50h-404zM243 179q0 18 12.5 28.5t27 10.5t27 -10.5t12.5 -28.5t-12.5 -28.5t-27 -10.5t-27 10.5t-12.5 28.5zM243 484q0 18 12.5 28.5t27 10.5t27 -10.5t12.5 -28.5t-12.5 -28.5t-27 -10.5t-27 10.5t-12.5 28.5z" />
<glyph unicode="&#xf8;" horiz-adv-x="599" d="M49 246q0 115 72 186t179 71q62 0 116 -26l37 62h51l-51 -85q98 -73 98 -208q0 -115 -72 -184t-179 -69q-62 0 -110 22l-41 -69h-50l54 90q-104 69 -104 210zM97 246q0 -112 81 -168l213 358q-44 21 -91 21q-86 0 -144.5 -58.5t-58.5 -152.5zM216 57q36 -16 84 -16 q87 0 145 56t58 149q0 107 -75 167z" />
<glyph unicode="&#xf9;" horiz-adv-x="602" d="M74 210v285h49v-284q0 -83 47 -127.5t129 -43.5q76 1 124.5 52t48.5 128v275h49v-495h-48v89q-53 -95 -176 -97q-100 0 -161.5 58.5t-61.5 159.5zM205 700v1h65l75 -120v-4h-48z" />
<glyph unicode="&#xfa;" horiz-adv-x="602" d="M74 210v285h49v-284q0 -83 47 -127.5t129 -43.5q76 1 124.5 52t48.5 128v275h49v-495h-48v89q-53 -95 -176 -97q-100 0 -161.5 58.5t-61.5 159.5zM267 577v4l75 120h65v-1l-92 -123h-48z" />
<glyph unicode="&#xfb;" horiz-adv-x="602" d="M74 210v285h49v-284q0 -83 47 -127.5t129 -43.5q76 1 124.5 52t48.5 128v275h49v-495h-48v89q-53 -95 -176 -97q-100 0 -161.5 58.5t-61.5 159.5zM145 567v7l137 127h39l137 -127v-7h-51l-106 92l-105 -92h-51z" />
<glyph unicode="&#xfc;" horiz-adv-x="602" d="M74 210v285h49v-284q0 -83 47 -127.5t129 -43.5q76 1 124.5 52t48.5 128v275h49v-495h-48v89q-53 -95 -176 -97q-100 0 -161.5 58.5t-61.5 159.5zM160 661q0 18 12.5 28.5t27 10.5t27 -10.5t12.5 -28.5t-12.5 -28.5t-27 -10.5t-27 10.5t-12.5 28.5zM374 661 q0 18 12.5 28.5t27 10.5t27 -10.5t12.5 -28.5t-12.5 -28.5t-27 -10.5t-27 10.5t-12.5 28.5z" />
<glyph unicode="&#xfd;" horiz-adv-x="533" d="M39 494h53q14 -35 42 -106.5t45 -114.5t41 -103.5t45 -110.5q28 74 181 435h53l-314 -733h-52l104 245zM235 584v4l70 113h62v-1l-87 -116h-45z" />
<glyph unicode="&#xfe;" horiz-adv-x="632" d="M81 -206v905h46l1 -322q30 57 87 90.5t128 33.5q105 -4 172.5 -71.5t67.5 -182.5q0 -120 -71 -188t-180 -68q-65 0 -119 31.5t-85 91.5v-320h-47zM132 246q0 -90 57.5 -149t142.5 -59q88 0 145 54.5t57 154.5t-57 153.5t-145 53.5q-86 0 -143 -58.5t-57 -149.5z" />
<glyph unicode="&#xff;" horiz-adv-x="533" d="M39 494h53q14 -35 42 -106.5t45 -114.5t41 -103.5t45 -110.5q28 74 181 435h53l-314 -733h-52l104 245zM134 667q0 24 19 33.5t37.5 0t18.5 -33.5q0 -17 -11.5 -27t-26 -10t-26 10t-11.5 27zM338 667q0 24 19 33.5t37.5 0t18.5 -33.5q0 -17 -11.5 -27t-26 -10t-26 10 t-11.5 27z" />
<glyph unicode="&#x152;" horiz-adv-x="950" d="M54 351q0 97 38 175.5t119.5 129t195.5 50.5q38 0 71 -6h406v-48h-362v-275h340v-49h-340v-280h377v-48h-423q-37 -5 -69 -5q-85 0 -153.5 29.5t-111.5 79.5t-65.5 113t-22.5 134zM107 350q1 -128 80 -219t220 -91q36 0 69 6v612q-33 6 -69 6q-97 0 -166.5 -44.5 t-102 -114.5t-31.5 -155z" />
<glyph unicode="&#x153;" horiz-adv-x="1025" d="M49 246q0 115 72 186t179 71q78 0 136.5 -40t85.5 -111q27 67 86 108.5t134 41.5q113 0 183 -70.5t57 -207.5q-290 0 -438 -1q7 -84 63 -133t135 -49q51 0 99 20t75 55l35 -28q-35 -46 -91.5 -70.5t-117.5 -24.5q-76 0 -135 40t-85 106q-27 -70 -85.5 -108t-136.5 -38 q-107 0 -179 69t-72 184zM97 246q0 -93 58 -149t145 -56q86 0 143.5 55.5t57.5 149.5t-57.5 152.5t-143.5 58.5t-144.5 -58.5t-58.5 -152.5zM544 267h394q-1 90 -53.5 140t-142.5 50q-79 0 -134.5 -51t-63.5 -139z" />
<glyph unicode="&#x178;" horiz-adv-x="659" d="M29 699v1h63l237 -368l238 368h63v-1l-274 -419v-280h-54v280zM192 808q0 24 19 33.5t37.5 0t18.5 -33.5q0 -23 -18.5 -32.5t-37.5 0t-19 32.5zM396 808q0 24 19 33.5t37.5 0t18.5 -33.5q0 -23 -18.5 -32.5t-37.5 0t-19 32.5z" />
<glyph unicode="&#x2c6;" horiz-adv-x="421" d="M36 562v7l142 132h40l142 -132v-7h-53l-109 96l-109 -96h-53z" />
<glyph unicode="&#x2dc;" horiz-adv-x="325" d="M31 639q5 44 40.5 60.5t71.5 -2.5l41 -22q18 -10 36.5 -4t24.5 30l34 -11q-4 -45 -40 -61.5t-72 3.5l-41 22q-18 10 -36.5 3.5t-24.5 -29.5z" />
<glyph unicode="&#x2000;" horiz-adv-x="459" />
<glyph unicode="&#x2001;" horiz-adv-x="918" />
<glyph unicode="&#x2002;" horiz-adv-x="459" />
<glyph unicode="&#x2003;" horiz-adv-x="918" />
<glyph unicode="&#x2004;" horiz-adv-x="306" />
<glyph unicode="&#x2005;" horiz-adv-x="229" />
<glyph unicode="&#x2006;" horiz-adv-x="153" />
<glyph unicode="&#x2007;" horiz-adv-x="153" />
<glyph unicode="&#x2008;" horiz-adv-x="114" />
<glyph unicode="&#x2009;" horiz-adv-x="183" />
<glyph unicode="&#x200a;" horiz-adv-x="51" />
<glyph unicode="&#x2010;" horiz-adv-x="496" d="M73 261v50h350v-50h-350z" />
<glyph unicode="&#x2011;" horiz-adv-x="496" d="M73 261v50h350v-50h-350z" />
<glyph unicode="&#x2012;" horiz-adv-x="496" d="M73 261v50h350v-50h-350z" />
<glyph unicode="&#x2013;" horiz-adv-x="592" d="M73 259v51h446v-51h-446z" />
<glyph unicode="&#x2014;" horiz-adv-x="699" d="M73 257v51h553v-51h-553z" />
<glyph unicode="&#x2018;" horiz-adv-x="209" d="M58 538l57 163h44l-44 -163h-57z" />
<glyph unicode="&#x2019;" horiz-adv-x="207" d="M60 532l45 169h57l-58 -169h-44z" />
<glyph unicode="&#x201a;" horiz-adv-x="227" d="M44 -105l45 169h57l-58 -169h-44z" />
<glyph unicode="&#x201c;" horiz-adv-x="339" d="M58 530l60 168h44l-47 -168h-57zM184 530l60 168h44l-47 -168h-57z" />
<glyph unicode="&#x201d;" horiz-adv-x="332" d="M60 540l45 161h57l-58 -161h-44zM186 540l45 161h57l-58 -161h-44z" />
<glyph unicode="&#x201e;" horiz-adv-x="347" d="M44 -105l45 169h57l-58 -169h-44zM164 -105l45 169h57l-58 -169h-44z" />
<glyph unicode="&#x2022;" horiz-adv-x="382" d="M94 285q0 43 27.5 69.5t70.5 26.5q41 0 68.5 -26.5t27.5 -69.5t-27.5 -69.5t-68.5 -26.5q-43 0 -70.5 26.5t-27.5 69.5z" />
<glyph unicode="&#x2026;" horiz-adv-x="569" d="M73 30q0 18 12.5 28.5t27 10.5t27 -10.5t12.5 -28.5t-12.5 -28.5t-27 -10.5t-27 10.5t-12.5 28.5zM246 30q0 18 12.5 28.5t27 10.5t27 -10.5t12.5 -28.5t-12.5 -28.5t-27 -10.5t-27 10.5t-12.5 28.5zM417 30q0 18 12.5 28.5t27 10.5t27 -10.5t12.5 -28.5t-12.5 -28.5 t-27 -10.5t-27 10.5t-12.5 28.5z" />
<glyph unicode="&#x202f;" horiz-adv-x="183" />
<glyph unicode="&#x2039;" horiz-adv-x="295" d="M50 299l138 219h52v-5l-135 -214l135 -214v-6h-52z" />
<glyph unicode="&#x203a;" horiz-adv-x="295" d="M55 75v6l135 214l-135 214v5h52l138 -219l-138 -220h-52z" />
<glyph unicode="&#x205f;" horiz-adv-x="229" />
<glyph unicode="&#x20ac;" horiz-adv-x="614" d="M42 272v46h58q-1 7 -1 28t1 31h-58v46h64q17 127 105 206t236 79q46 0 99 -15l-11 -43q-43 12 -88 12q-248 0 -287 -239h273l-13 -46h-267q-1 -9 -1 -29q0 -23 1 -30h253l-10 -46h-236q17 -112 89 -171t198 -59q56 0 110 20l14 -48q-63 -22 -124 -22q-290 0 -341 280h-64 z" />
<glyph unicode="&#x2122;" horiz-adv-x="793" d="M64 660v40h273v-40h-114v-240h-47v240h-112zM391 420v280h44l115 -147l116 147h42v-280h-47v202l-108 -132h-9l-106 136v-206h-47z" />
<glyph unicode="&#x25fc;" horiz-adv-x="495" d="M0 0v495h495v-495h-495z" />
<glyph unicode="&#xfb01;" horiz-adv-x="547" d="M34 447v43h101v44q0 169 148 169q42 0 77 -20l-17 -40q-27 15 -62 15q-98 0 -98 -124v-44h155v-43h-155v-447h-48v447h-101zM405 655q0 18 12.5 28.5t27 10.5t27 -10.5t12.5 -28.5t-12.5 -28.5t-27 -10.5t-27 10.5t-12.5 28.5zM419 0v496h49v-496h-49z" />
<glyph unicode="&#xfb02;" horiz-adv-x="543" d="M34 447v43h101v44q0 169 148 169q39 0 74 -20l-17 -39q-27 15 -59 15q-98 0 -98 -125v-44h152v-43h-152v-447h-48v447h-101zM406 0v700h49v-700h-49z" />
</font>
</defs>
</svg>
